<?xml version="1.0" encoding="UTF-8" standalone="no"?>
<!-- Created with Inkscape (http://www.inkscape.org/) -->

<svg
   version="1.1"
   id="svg1"
   width="120.94488"
   height="75.590553"
   viewBox="0 0 120.94488 75.590553"
   sodipodi:docname="detached_sampling_inset.svg"
   inkscape:version="1.3.2 (091e20e, 2023-11-25, custom)"
   xmlns:inkscape="http://www.inkscape.org/namespaces/inkscape"
   xmlns:sodipodi="http://sodipodi.sourceforge.net/DTD/sodipodi-0.dtd"
   xmlns="http://www.w3.org/2000/svg"
   xmlns:svg="http://www.w3.org/2000/svg">
  <sodipodi:namedview
     id="namedview1"
     pagecolor="#ffffff"
     bordercolor="#666666"
     borderopacity="1.0"
     inkscape:showpageshadow="2"
     inkscape:pageopacity="0.0"
     inkscape:pagecheckerboard="0"
     inkscape:deskcolor="#d1d1d1"
     inkscape:zoom="5.6761396"
     inkscape:cx="54.702671"
     inkscape:cy="25.457443"
     inkscape:window-width="2560"
     inkscape:window-height="1377"
     inkscape:window-x="-8"
     inkscape:window-y="-8"
     inkscape:window-maximized="1"
     inkscape:current-layer="g1">
    <inkscape:page
       x="0"
       y="0"
       inkscape:label="1"
       id="page1"
       width="120.94488"
       height="75.590553"
       margin="0"
       bleed="0" />
  </sodipodi:namedview>
  <defs
     id="defs1" />
  <g
     id="g1"
     inkscape:groupmode="layer"
     inkscape:label="1">
    <path
       id="path1"
       d="M 61.941,1.836 H 89.796 V 47.129 H 61.941 Z"
       style="fill:#ececec;fill-opacity:1;fill-rule:nonzero;stroke:none"
       transform="scale(1.3333333)" />
    <path
       id="path2"
       d="M 31.426,1.836 H 59.281 V 47.129 H 31.426 Z"
       style="fill:#ececec;fill-opacity:1;fill-rule:nonzero;stroke:none"
       transform="scale(1.3333333)" />
    <path
       id="path3"
       d="M 89.219,4.66 C 86.184,4.66 84.703,4.281 82.426,5.539 80.148,6.797 80.742,19.477 75.473,20.086 70.207,20.695 61.93,19.934 61.93,19.934 V 1.836 h 27.289 z"
       style="fill:#e8eee5;fill-opacity:1;fill-rule:nonzero;stroke:#c1ccbc;stroke-width:0.566929;stroke-linecap:square;stroke-linejoin:miter;stroke-miterlimit:4;stroke-dasharray:none;stroke-opacity:1"
       transform="scale(1.3333333)" />
    <path
       id="path4"
       d="M 89.23,4.66 C 83.879,4.617 77.879,4.406 75.605,5.664 c -2.277,1.258 -3.664,13.813 -8.933,14.422 -5.36,0.09 -4.731,-0.152 -4.731,-0.152 V 1.836 H 89.23 Z"
       style="fill:#c9d9c4;fill-opacity:1;fill-rule:nonzero;stroke:#758c6b;stroke-width:0.566929;stroke-linecap:square;stroke-linejoin:miter;stroke-miterlimit:4;stroke-dasharray:none;stroke-opacity:1"
       transform="scale(1.3333333)" />
    <path
       id="path5"
       d="m 67.215,20.109 c 0,0.52 -0.418,0.938 -0.938,0.938 -0.515,0 -0.937,-0.418 -0.937,-0.938 0,-0.519 0.422,-0.937 0.937,-0.937 0.52,0 0.938,0.418 0.938,0.937 z"
       style="fill:#bebebe;fill-opacity:1;fill-rule:nonzero;stroke:#000000;stroke-width:0.566929;stroke-linecap:square;stroke-linejoin:round;stroke-miterlimit:4;stroke-dasharray:none;stroke-opacity:1"
       transform="scale(1.3333333)" />
    <path
       id="path6"
       d="m 58.648,4.66 c -3.031,0 -4.515,-0.379 -6.789,0.879 -2.277,1.258 -1.687,13.938 -6.953,14.547 -5.269,0.609 -13.543,-0.152 -13.543,-0.152 V 1.836 h 27.285 z"
       style="fill:#e8eee5;fill-opacity:1;fill-rule:nonzero;stroke:#c1ccbc;stroke-width:0.566929;stroke-linecap:square;stroke-linejoin:miter;stroke-miterlimit:4;stroke-dasharray:none;stroke-opacity:1"
       transform="scale(1.3333333)" />
    <path
       id="path7"
       d="M 58.648,4.66 C 53.297,4.617 47.301,4.406 45.023,5.664 42.746,6.922 41.359,19.477 36.094,20.086 30.73,20.176 31.363,19.934 31.363,19.934 V 1.836 h 27.285 z"
       style="fill:#c9d9c4;fill-opacity:1;fill-rule:nonzero;stroke:#758c6b;stroke-width:0.566929;stroke-linecap:square;stroke-linejoin:miter;stroke-miterlimit:4;stroke-dasharray:none;stroke-opacity:1"
       transform="scale(1.3333333)" />
    <path
       id="path8"
       d="m 44.777,7.262 c 0,0.519 -0.418,0.937 -0.937,0.937 -0.516,0 -0.938,-0.418 -0.938,-0.937 0,-0.516 0.422,-0.938 0.938,-0.938 0.519,0 0.937,0.422 0.937,0.938 z"
       style="fill:#bebebe;fill-opacity:1;fill-rule:nonzero;stroke:#000000;stroke-width:0.566929;stroke-linecap:square;stroke-linejoin:round;stroke-miterlimit:4;stroke-dasharray:none;stroke-opacity:1"
       transform="scale(1.3333333)" />
    <path
       id="path9"
       d="m 33.145,53.551 c 0.171,0 0.32,-0.059 0.449,-0.172 0.129,-0.117 0.191,-0.274 0.191,-0.473 0,-0.211 -0.055,-0.375 -0.164,-0.488 C 33.512,52.301 33.352,52.199 33.145,52.109 33.008,52.055 32.891,52 32.793,51.945 32.699,51.891 32.602,51.82 32.504,51.738 32.406,51.656 32.332,51.559 32.277,51.445 32.223,51.336 32.195,51.211 32.195,51.07 c 0,-0.187 0.059,-0.359 0.172,-0.515 0.117,-0.157 0.262,-0.27 0.438,-0.344 0.148,-0.063 0.304,-0.094 0.472,-0.094 0.188,0 0.356,0.02 0.5,0.063 0.145,0.039 0.243,0.082 0.297,0.125 l 0.074,0.062 0.012,0.016 c -0.07,0.23 -0.113,0.414 -0.129,0.551 l -0.051,0.004 c -0.074,-0.172 -0.179,-0.309 -0.316,-0.415 -0.141,-0.109 -0.285,-0.16 -0.434,-0.16 -0.14,0 -0.253,0.02 -0.335,0.063 -0.071,0.035 -0.129,0.105 -0.18,0.203 -0.051,0.094 -0.074,0.191 -0.074,0.293 0,0.105 0.019,0.199 0.058,0.285 0.043,0.086 0.102,0.156 0.18,0.211 0.074,0.055 0.144,0.098 0.207,0.129 0.059,0.031 0.137,0.062 0.226,0.098 0.657,0.242 0.985,0.609 0.985,1.097 0,0.313 -0.113,0.57 -0.34,0.762 -0.227,0.191 -0.512,0.289 -0.859,0.289 -0.188,0 -0.368,-0.02 -0.536,-0.063 -0.167,-0.039 -0.285,-0.082 -0.359,-0.121 l -0.105,-0.066 -0.012,-0.016 c 0.074,-0.269 0.117,-0.461 0.129,-0.566 l 0.055,-0.004 c 0.082,0.16 0.21,0.301 0.382,0.418 0.172,0.117 0.336,0.176 0.493,0.176 z m 3.156,-1.051 -0.469,0.125 c -0.203,0.055 -0.344,0.129 -0.426,0.219 -0.078,0.09 -0.121,0.199 -0.121,0.332 0,0.09 0.039,0.168 0.113,0.234 0.079,0.067 0.176,0.102 0.297,0.102 0.149,0 0.317,-0.071 0.504,-0.215 0.055,-0.035 0.078,-0.082 0.078,-0.141 z m 0,0.973 h -0.024 c -0.144,0.129 -0.269,0.211 -0.371,0.254 -0.101,0.043 -0.226,0.066 -0.379,0.066 -0.211,0 -0.379,-0.051 -0.504,-0.148 -0.121,-0.098 -0.183,-0.247 -0.183,-0.446 0,-0.187 0.082,-0.351 0.246,-0.492 0.164,-0.141 0.387,-0.242 0.668,-0.309 l 0.512,-0.113 c 0.027,-0.008 0.039,-0.027 0.039,-0.066 0,-0.117 -0.012,-0.219 -0.039,-0.305 -0.028,-0.086 -0.055,-0.148 -0.09,-0.191 -0.031,-0.043 -0.074,-0.075 -0.133,-0.098 -0.051,-0.027 -0.098,-0.043 -0.137,-0.047 -0.035,-0.004 -0.078,-0.008 -0.129,-0.008 -0.211,0 -0.414,0.157 -0.605,0.469 l -0.074,-0.008 -0.09,-0.367 0.015,-0.019 c 0.254,-0.215 0.524,-0.321 0.809,-0.321 0.606,0 0.906,0.297 0.906,0.891 0,0.012 0,0.058 0,0.133 -0.004,0.078 -0.004,0.16 -0.008,0.246 0,0.086 -0.003,0.172 -0.003,0.261 -0.004,0.09 -0.004,0.153 -0.004,0.188 0,0.234 0.031,0.375 0.093,0.43 0.028,0.027 0.082,0.043 0.161,0.043 0.043,0 0.093,-0.012 0.148,-0.032 l 0.043,0.137 c -0.109,0.113 -0.254,0.172 -0.438,0.172 -0.105,0 -0.195,-0.027 -0.273,-0.082 -0.074,-0.055 -0.129,-0.133 -0.156,-0.238 z m 1.832,-1.672 0.015,0.015 c 0.309,-0.328 0.618,-0.492 0.922,-0.492 0.157,0 0.285,0.039 0.387,0.117 0.105,0.079 0.172,0.184 0.195,0.317 0.278,-0.289 0.586,-0.434 0.93,-0.434 0.273,0 0.453,0.074 0.547,0.223 0.09,0.148 0.137,0.367 0.137,0.652 v 0.547 c 0,0.426 0.015,0.758 0.05,0.992 l -0.011,0.016 c -0.067,-0.012 -0.153,-0.016 -0.258,-0.016 -0.109,0 -0.195,0.004 -0.258,0.016 l -0.012,-0.016 c 0.032,-0.222 0.047,-0.554 0.047,-0.992 v -0.605 c 0,-0.176 -0.035,-0.305 -0.105,-0.375 -0.071,-0.075 -0.18,-0.114 -0.336,-0.114 -0.266,0 -0.5,0.114 -0.695,0.332 0.003,0.043 0.003,0.114 0.003,0.211 v 0.551 c 0,0.426 0.016,0.758 0.051,0.992 l -0.012,0.016 c -0.066,-0.012 -0.152,-0.016 -0.257,-0.016 -0.106,0 -0.192,0.004 -0.258,0.016 l -0.012,-0.016 c 0.031,-0.222 0.047,-0.554 0.051,-0.992 v -0.605 c 0,-0.325 -0.121,-0.489 -0.367,-0.489 -0.098,0 -0.215,0.039 -0.356,0.121 -0.14,0.079 -0.273,0.18 -0.398,0.309 v 0.664 c 0,0.426 0.015,0.758 0.047,0.992 l -0.012,0.016 c -0.066,-0.012 -0.152,-0.016 -0.262,-0.016 -0.105,0 -0.187,0.004 -0.254,0.016 l -0.011,-0.016 c 0.035,-0.222 0.05,-0.554 0.05,-0.992 v -0.301 c 0,-0.507 -0.015,-0.863 -0.05,-1.066 l 0.011,-0.02 c 0.16,0.016 0.309,0.012 0.446,-0.015 0.019,0 0.031,0.019 0.035,0.058 z m 4.433,0.32 v 1.203 c 0.141,0.164 0.313,0.246 0.512,0.25 0.141,0 0.258,-0.031 0.356,-0.094 0.101,-0.062 0.175,-0.148 0.222,-0.253 0.051,-0.11 0.086,-0.223 0.106,-0.332 0.019,-0.114 0.031,-0.231 0.031,-0.356 0,-0.641 -0.188,-0.961 -0.566,-0.965 -0.11,0 -0.231,0.059 -0.368,0.168 -0.136,0.11 -0.234,0.235 -0.293,0.379 z m 0,-0.32 0.012,0.015 c 0.215,-0.328 0.465,-0.492 0.742,-0.492 0.293,0 0.528,0.114 0.7,0.336 0.171,0.227 0.257,0.496 0.257,0.809 0,0.39 -0.105,0.711 -0.312,0.953 -0.211,0.246 -0.492,0.371 -0.852,0.371 -0.215,0 -0.394,-0.043 -0.547,-0.121 v 0.242 c 0,0.473 0.016,0.84 0.051,1.098 l -0.012,0.019 c -0.066,-0.011 -0.152,-0.019 -0.261,-0.019 -0.106,0 -0.192,0.008 -0.254,0.019 l -0.012,-0.019 c 0.031,-0.242 0.051,-0.61 0.051,-1.098 v -1.469 c 0,-0.507 -0.02,-0.863 -0.051,-1.066 l 0.012,-0.02 c 0.16,0.016 0.308,0.012 0.441,-0.015 0.024,0 0.035,0.019 0.035,0.058 z m 2.481,0.836 v -1.551 c 0,-0.524 -0.016,-0.879 -0.051,-1.059 l 0.012,-0.019 c 0.164,-0.012 0.324,-0.047 0.48,-0.11 0.032,0 0.047,0.02 0.051,0.055 -0.035,0.445 -0.051,0.789 -0.051,1.035 v 1.649 c 0,0.492 0.016,0.859 0.051,1.101 l -0.016,0.016 c -0.066,-0.012 -0.152,-0.016 -0.257,-0.016 -0.106,0 -0.192,0.004 -0.258,0.016 l -0.012,-0.016 c 0.035,-0.234 0.051,-0.601 0.051,-1.101 z m 1.414,-1.989 c -0.055,-0.054 -0.082,-0.121 -0.082,-0.195 0,-0.074 0.027,-0.137 0.082,-0.191 0.059,-0.059 0.125,-0.086 0.195,-0.086 0.074,0 0.141,0.027 0.199,0.086 0.055,0.054 0.086,0.117 0.086,0.191 0,0.074 -0.031,0.141 -0.086,0.195 -0.058,0.059 -0.125,0.086 -0.199,0.086 -0.07,0 -0.136,-0.027 -0.195,-0.086 z m -0.027,1.797 c 0,-0.488 -0.02,-0.843 -0.051,-1.066 l 0.012,-0.02 c 0.156,0.012 0.316,0.012 0.476,-0.004 0.024,0 0.035,0.004 0.043,0.008 0.008,0.004 0.008,0.024 0.008,0.047 -0.031,0.309 -0.047,0.625 -0.051,0.945 v 0.391 c 0,0.399 0.02,0.731 0.051,0.992 l -0.012,0.016 c -0.066,-0.012 -0.152,-0.016 -0.258,-0.016 -0.105,0 -0.191,0.004 -0.257,0.016 l -0.012,-0.016 c 0.035,-0.246 0.051,-0.578 0.051,-0.992 z m 3.461,0.301 c 0,0.418 0.019,0.75 0.054,0.992 l -0.015,0.016 c -0.067,-0.012 -0.153,-0.016 -0.258,-0.016 -0.106,0 -0.192,0.004 -0.258,0.016 l -0.012,-0.016 c 0.035,-0.246 0.051,-0.578 0.051,-0.992 v -0.535 c 0,-0.219 -0.031,-0.363 -0.09,-0.441 -0.058,-0.079 -0.16,-0.118 -0.305,-0.118 -0.113,0 -0.242,0.039 -0.386,0.114 -0.145,0.07 -0.285,0.183 -0.414,0.339 v 0.641 c 0,0.426 0.019,0.758 0.05,0.992 l -0.011,0.016 c -0.067,-0.012 -0.153,-0.016 -0.258,-0.016 -0.105,0 -0.191,0.004 -0.258,0.016 l -0.012,-0.016 c 0.036,-0.222 0.051,-0.554 0.051,-0.992 v -0.301 c 0,-0.507 -0.015,-0.863 -0.051,-1.066 l 0.012,-0.02 c 0.16,0.016 0.309,0.012 0.445,-0.015 0.024,0 0.032,0.019 0.032,0.058 v 0.399 l 0.011,0.015 c 0.286,-0.328 0.602,-0.492 0.954,-0.492 0.238,0 0.414,0.071 0.519,0.215 0.106,0.141 0.16,0.359 0.16,0.656 0,0.059 0,0.149 -0.004,0.274 -0.004,0.125 -0.007,0.219 -0.007,0.277 z m 0.988,1.563 c 0,0.113 0.051,0.211 0.148,0.293 0.094,0.082 0.196,0.136 0.301,0.164 0.106,0.027 0.195,0.043 0.273,0.043 0.25,0 0.469,-0.047 0.649,-0.137 0.184,-0.09 0.273,-0.219 0.273,-0.379 0,-0.18 -0.07,-0.313 -0.215,-0.398 -0.105,-0.063 -0.3,-0.09 -0.582,-0.09 -0.019,0 -0.089,0.004 -0.21,0.007 -0.122,0.004 -0.215,0.008 -0.278,0.008 -0.097,0.055 -0.183,0.129 -0.254,0.219 -0.07,0.094 -0.105,0.184 -0.105,0.27 z m 1.59,-2.161 c 0,0.243 -0.078,0.442 -0.235,0.602 -0.156,0.16 -0.383,0.238 -0.676,0.238 -0.175,0 -0.312,-0.023 -0.41,-0.074 -0.109,0.094 -0.164,0.195 -0.164,0.305 0,0.105 0.028,0.176 0.086,0.211 0.055,0.031 0.133,0.05 0.235,0.05 0.003,0 0.058,-0.003 0.16,-0.011 0.136,-0.02 0.289,-0.028 0.457,-0.028 0.371,0 0.633,0.059 0.773,0.18 0.156,0.133 0.231,0.317 0.231,0.547 0,0.184 -0.075,0.348 -0.223,0.484 -0.152,0.141 -0.336,0.239 -0.555,0.301 -0.218,0.063 -0.453,0.094 -0.699,0.094 -0.152,0 -0.293,-0.02 -0.43,-0.051 -0.132,-0.035 -0.253,-0.101 -0.359,-0.203 -0.105,-0.098 -0.156,-0.223 -0.156,-0.375 0,-0.109 0.039,-0.23 0.125,-0.359 0.043,-0.039 0.195,-0.125 0.449,-0.27 0.008,-0.004 0.012,-0.008 0.016,-0.012 -0.141,-0.023 -0.246,-0.078 -0.317,-0.164 -0.066,-0.086 -0.101,-0.187 -0.101,-0.312 0,-0.145 0.113,-0.297 0.343,-0.453 -0.261,-0.153 -0.39,-0.383 -0.39,-0.688 0,-0.258 0.094,-0.461 0.285,-0.609 0.195,-0.153 0.41,-0.227 0.648,-0.227 0.125,0 0.235,0.016 0.336,0.047 0.157,-0.008 0.325,-0.027 0.508,-0.055 0.184,-0.027 0.301,-0.043 0.36,-0.05 l 0.015,0.019 c -0.012,0.051 -0.015,0.102 -0.015,0.145 0,0.043 0.003,0.09 0.015,0.14 l -0.015,0.016 c -0.34,-0.035 -0.532,-0.055 -0.571,-0.055 0.184,0.121 0.274,0.328 0.274,0.617 z m -0.43,0.028 c 0,-0.43 -0.164,-0.645 -0.496,-0.645 -0.16,0 -0.281,0.055 -0.363,0.164 -0.082,0.106 -0.125,0.25 -0.125,0.438 0,0.211 0.039,0.371 0.121,0.48 0.082,0.106 0.218,0.157 0.41,0.157 0.164,0 0.281,-0.051 0.351,-0.157 0.071,-0.101 0.102,-0.25 0.102,-0.437 z m 5.992,0.429 c 0,0.321 -0.094,0.602 -0.281,0.836 -0.188,0.235 -0.414,0.352 -0.68,0.352 -0.144,0 -0.281,-0.043 -0.414,-0.121 -0.129,-0.082 -0.23,-0.219 -0.305,-0.418 -0.16,0.359 -0.39,0.539 -0.687,0.539 -0.277,0 -0.508,-0.082 -0.691,-0.242 -0.184,-0.156 -0.274,-0.422 -0.274,-0.785 0,-0.286 0.078,-0.567 0.235,-0.844 0.156,-0.277 0.359,-0.481 0.609,-0.613 l 0.098,0.109 c -0.317,0.367 -0.473,0.801 -0.473,1.309 0,0.289 0.047,0.503 0.137,0.64 0.097,0.137 0.222,0.207 0.375,0.207 0.093,0 0.183,-0.043 0.261,-0.125 0.078,-0.082 0.16,-0.222 0.243,-0.414 0.015,-0.055 0.023,-0.117 0.023,-0.187 0.004,-0.067 0,-0.137 -0.004,-0.211 -0.004,-0.075 -0.008,-0.117 -0.008,-0.133 0,-0.016 0,-0.043 -0.004,-0.078 -0.004,-0.039 -0.007,-0.071 -0.007,-0.098 0,-0.027 0.003,-0.051 0.011,-0.07 0.035,-0.024 0.086,-0.051 0.156,-0.074 0.071,-0.028 0.122,-0.043 0.157,-0.043 0.078,0 0.105,0.07 0.086,0.207 -0.004,0.015 -0.016,0.058 -0.032,0.129 -0.011,0.066 -0.023,0.125 -0.031,0.171 -0.008,0.047 -0.015,0.11 -0.023,0.192 -0.004,0.078 -0.004,0.137 0.008,0.18 0.07,0.187 0.148,0.328 0.234,0.421 0.09,0.086 0.195,0.133 0.32,0.133 0.168,0 0.293,-0.086 0.375,-0.262 0.078,-0.175 0.121,-0.406 0.121,-0.691 0,-0.101 -0.004,-0.18 -0.008,-0.238 -0.003,-0.055 -0.015,-0.141 -0.039,-0.258 -0.023,-0.121 -0.07,-0.238 -0.14,-0.355 -0.071,-0.118 -0.16,-0.235 -0.27,-0.348 l 0.071,-0.113 c 0.214,0.062 0.41,0.203 0.586,0.421 0.179,0.219 0.265,0.512 0.265,0.875 z"
       style="fill:#000000;fill-opacity:1;fill-rule:nonzero;stroke:none"
       transform="scale(1.3333333)" />
    <path
       id="path10"
       d="m 64.254,53.551 c 0.172,0 0.32,-0.059 0.449,-0.172 0.129,-0.117 0.192,-0.274 0.192,-0.473 0,-0.211 -0.055,-0.375 -0.165,-0.488 C 64.621,52.301 64.461,52.199 64.254,52.109 64.117,52.055 64,52 63.906,51.945 63.809,51.891 63.715,51.82 63.613,51.738 63.516,51.656 63.441,51.559 63.387,51.445 63.332,51.336 63.305,51.211 63.305,51.07 c 0,-0.187 0.058,-0.359 0.172,-0.515 0.117,-0.157 0.261,-0.27 0.437,-0.344 0.148,-0.063 0.305,-0.094 0.473,-0.094 0.187,0 0.355,0.02 0.5,0.063 0.144,0.039 0.246,0.082 0.297,0.125 l 0.074,0.062 0.012,0.016 c -0.071,0.23 -0.114,0.414 -0.125,0.551 l -0.055,0.004 c -0.074,-0.172 -0.18,-0.309 -0.317,-0.415 -0.14,-0.109 -0.285,-0.16 -0.433,-0.16 -0.141,0 -0.25,0.02 -0.336,0.063 -0.07,0.035 -0.129,0.105 -0.18,0.203 -0.047,0.094 -0.074,0.191 -0.074,0.293 0,0.105 0.02,0.199 0.062,0.285 0.04,0.086 0.098,0.156 0.176,0.211 0.078,0.055 0.145,0.098 0.207,0.129 0.059,0.031 0.137,0.062 0.227,0.098 0.656,0.242 0.988,0.609 0.988,1.097 0,0.313 -0.117,0.57 -0.344,0.762 -0.226,0.191 -0.511,0.289 -0.859,0.289 -0.187,0 -0.367,-0.02 -0.535,-0.063 -0.168,-0.039 -0.285,-0.082 -0.36,-0.121 l -0.105,-0.066 -0.012,-0.016 c 0.075,-0.269 0.117,-0.461 0.129,-0.566 l 0.055,-0.004 c 0.082,0.16 0.211,0.301 0.383,0.418 0.176,0.117 0.34,0.176 0.492,0.176 z M 67.41,52.5 66.941,52.625 c -0.203,0.055 -0.343,0.129 -0.421,0.219 -0.082,0.09 -0.122,0.199 -0.122,0.332 0,0.09 0.036,0.168 0.11,0.234 0.078,0.067 0.176,0.102 0.297,0.102 0.148,0 0.316,-0.071 0.504,-0.215 0.054,-0.035 0.078,-0.082 0.078,-0.141 z m 0,0.973 h -0.023 c -0.145,0.129 -0.27,0.211 -0.371,0.254 -0.102,0.043 -0.227,0.066 -0.379,0.066 -0.211,0 -0.379,-0.051 -0.504,-0.148 -0.121,-0.098 -0.184,-0.247 -0.184,-0.446 0,-0.187 0.082,-0.351 0.246,-0.492 0.164,-0.141 0.387,-0.242 0.668,-0.309 l 0.516,-0.113 c 0.023,-0.008 0.035,-0.027 0.035,-0.066 0,-0.117 -0.012,-0.219 -0.039,-0.305 -0.027,-0.086 -0.055,-0.148 -0.09,-0.191 -0.031,-0.043 -0.074,-0.075 -0.133,-0.098 -0.05,-0.027 -0.097,-0.043 -0.136,-0.047 -0.036,-0.004 -0.078,-0.008 -0.129,-0.008 -0.211,0 -0.41,0.157 -0.606,0.469 l -0.074,-0.008 -0.09,-0.367 0.016,-0.019 c 0.254,-0.215 0.523,-0.321 0.808,-0.321 0.606,0 0.911,0.297 0.911,0.891 0,0.012 -0.004,0.058 -0.004,0.133 -0.004,0.078 -0.004,0.16 -0.008,0.246 0,0.086 0,0.172 -0.004,0.261 0,0.09 -0.004,0.153 -0.004,0.188 0,0.234 0.031,0.375 0.094,0.43 0.031,0.027 0.082,0.043 0.16,0.043 0.043,0 0.094,-0.012 0.148,-0.032 l 0.043,0.137 c -0.109,0.113 -0.254,0.172 -0.437,0.172 -0.106,0 -0.195,-0.027 -0.274,-0.082 -0.074,-0.055 -0.125,-0.133 -0.156,-0.238 z m 1.832,-1.672 0.016,0.015 c 0.312,-0.328 0.617,-0.492 0.922,-0.492 0.156,0 0.285,0.039 0.386,0.117 0.106,0.079 0.172,0.184 0.196,0.317 0.277,-0.289 0.586,-0.434 0.929,-0.434 0.274,0 0.457,0.074 0.547,0.223 0.09,0.148 0.137,0.367 0.137,0.652 v 0.547 c 0,0.426 0.016,0.758 0.051,0.992 l -0.012,0.016 c -0.066,-0.012 -0.152,-0.016 -0.258,-0.016 -0.105,0 -0.191,0.004 -0.258,0.016 l -0.011,-0.016 c 0.031,-0.222 0.047,-0.554 0.047,-0.992 v -0.605 c 0,-0.176 -0.036,-0.305 -0.106,-0.375 -0.066,-0.075 -0.18,-0.114 -0.336,-0.114 -0.265,0 -0.5,0.114 -0.695,0.332 0.004,0.043 0.004,0.114 0.004,0.211 v 0.551 c 0,0.426 0.015,0.758 0.051,0.992 l -0.012,0.016 c -0.067,-0.012 -0.152,-0.016 -0.258,-0.016 -0.105,0 -0.191,0.004 -0.258,0.016 l -0.012,-0.016 c 0.032,-0.222 0.051,-0.554 0.051,-0.992 v -0.605 c 0,-0.325 -0.121,-0.489 -0.363,-0.489 -0.102,0 -0.219,0.039 -0.359,0.121 -0.141,0.079 -0.274,0.18 -0.399,0.309 v 0.664 c 0,0.426 0.016,0.758 0.047,0.992 l -0.012,0.016 c -0.066,-0.012 -0.152,-0.016 -0.257,-0.016 -0.106,0 -0.192,0.004 -0.258,0.016 l -0.008,-0.016 c 0.031,-0.222 0.047,-0.554 0.047,-0.992 v -0.301 c 0,-0.507 -0.016,-0.863 -0.047,-1.066 l 0.008,-0.02 c 0.164,0.016 0.308,0.012 0.445,-0.015 0.02,0 0.031,0.019 0.035,0.058 z m 4.434,0.32 v 1.203 c 0.14,0.164 0.312,0.246 0.512,0.25 0.14,0 0.257,-0.031 0.355,-0.094 0.102,-0.062 0.176,-0.148 0.227,-0.253 0.046,-0.11 0.082,-0.223 0.101,-0.332 0.02,-0.114 0.031,-0.231 0.031,-0.356 0,-0.641 -0.187,-0.961 -0.562,-0.965 -0.11,0 -0.235,0.059 -0.371,0.168 -0.137,0.11 -0.231,0.235 -0.293,0.379 z m 0,-0.32 0.012,0.015 c 0.218,-0.328 0.464,-0.492 0.742,-0.492 0.293,0 0.527,0.114 0.699,0.336 0.172,0.227 0.258,0.496 0.258,0.809 0,0.39 -0.102,0.711 -0.313,0.953 -0.211,0.246 -0.492,0.371 -0.851,0.371 -0.215,0 -0.395,-0.043 -0.547,-0.121 v 0.242 c 0,0.473 0.019,0.84 0.051,1.098 l -0.012,0.019 c -0.067,-0.011 -0.153,-0.019 -0.262,-0.019 -0.105,0 -0.187,0.008 -0.254,0.019 l -0.011,-0.019 c 0.035,-0.242 0.05,-0.61 0.05,-1.098 v -1.469 c 0,-0.507 -0.015,-0.863 -0.05,-1.066 l 0.011,-0.02 c 0.16,0.016 0.309,0.012 0.442,-0.015 0.023,0 0.035,0.019 0.035,0.058 z m 2.48,0.836 v -1.551 c 0,-0.524 -0.015,-0.879 -0.047,-1.059 l 0.008,-0.019 c 0.168,-0.012 0.324,-0.047 0.481,-0.11 0.031,0 0.047,0.02 0.05,0.055 -0.031,0.445 -0.05,0.789 -0.05,1.035 v 1.649 c 0,0.492 0.015,0.859 0.05,1.101 l -0.015,0.016 c -0.067,-0.012 -0.153,-0.016 -0.258,-0.016 -0.105,0 -0.191,0.004 -0.258,0.016 l -0.008,-0.016 c 0.032,-0.234 0.047,-0.601 0.047,-1.101 z m 1.414,-1.989 c -0.054,-0.054 -0.082,-0.121 -0.082,-0.195 0,-0.074 0.028,-0.137 0.082,-0.191 0.059,-0.059 0.125,-0.086 0.196,-0.086 0.074,0 0.14,0.027 0.199,0.086 0.055,0.054 0.086,0.117 0.086,0.191 0,0.074 -0.031,0.141 -0.086,0.195 -0.059,0.059 -0.125,0.086 -0.199,0.086 -0.071,0 -0.137,-0.027 -0.196,-0.086 z m -0.027,1.797 c 0,-0.488 -0.016,-0.843 -0.051,-1.066 l 0.012,-0.02 c 0.156,0.012 0.316,0.012 0.476,-0.004 0.024,0 0.036,0.004 0.043,0.008 0.008,0.004 0.012,0.024 0.012,0.047 -0.035,0.309 -0.051,0.625 -0.055,0.945 v 0.391 c 0,0.399 0.02,0.731 0.055,0.992 l -0.015,0.016 c -0.067,-0.012 -0.153,-0.016 -0.258,-0.016 -0.106,0 -0.192,0.004 -0.258,0.016 l -0.012,-0.016 c 0.035,-0.246 0.051,-0.578 0.051,-0.992 z m 3.465,0.301 c 0,0.418 0.015,0.75 0.051,0.992 l -0.016,0.016 c -0.066,-0.012 -0.152,-0.016 -0.258,-0.016 -0.105,0 -0.191,0.004 -0.258,0.016 l -0.011,-0.016 c 0.035,-0.246 0.05,-0.578 0.05,-0.992 v -0.535 c 0,-0.219 -0.031,-0.363 -0.089,-0.441 -0.059,-0.079 -0.161,-0.118 -0.305,-0.118 -0.113,0 -0.242,0.039 -0.387,0.114 -0.144,0.07 -0.281,0.183 -0.41,0.339 v 0.641 c 0,0.426 0.016,0.758 0.047,0.992 l -0.012,0.016 c -0.066,-0.012 -0.152,-0.016 -0.258,-0.016 -0.105,0 -0.191,0.004 -0.257,0.016 l -0.012,-0.016 c 0.035,-0.222 0.051,-0.554 0.051,-0.992 v -0.301 c 0,-0.507 -0.016,-0.863 -0.051,-1.066 l 0.012,-0.02 c 0.16,0.016 0.312,0.012 0.445,-0.015 0.023,0 0.035,0.019 0.035,0.058 v 0.399 l 0.008,0.015 c 0.285,-0.328 0.601,-0.492 0.953,-0.492 0.242,0 0.414,0.071 0.519,0.215 0.11,0.141 0.161,0.359 0.161,0.656 0,0.059 0,0.149 -0.004,0.274 -0.004,0.125 -0.004,0.219 -0.004,0.277 z m 0.988,1.563 c 0,0.113 0.047,0.211 0.145,0.293 0.093,0.082 0.195,0.136 0.3,0.164 0.106,0.027 0.196,0.043 0.274,0.043 0.25,0 0.469,-0.047 0.648,-0.137 0.184,-0.09 0.274,-0.219 0.274,-0.379 0,-0.18 -0.071,-0.313 -0.215,-0.398 -0.106,-0.063 -0.297,-0.09 -0.582,-0.09 -0.016,0 -0.09,0.004 -0.211,0.007 -0.121,0.004 -0.215,0.008 -0.277,0.008 -0.098,0.055 -0.184,0.129 -0.254,0.219 -0.067,0.094 -0.102,0.184 -0.102,0.27 z m 1.59,-2.161 c 0,0.243 -0.082,0.442 -0.238,0.602 -0.157,0.16 -0.383,0.238 -0.676,0.238 -0.176,0 -0.313,-0.023 -0.41,-0.074 -0.11,0.094 -0.164,0.195 -0.164,0.305 0,0.105 0.031,0.176 0.086,0.211 0.054,0.031 0.136,0.05 0.234,0.05 0.004,0 0.059,-0.003 0.16,-0.011 0.141,-0.02 0.289,-0.028 0.457,-0.028 0.371,0 0.633,0.059 0.774,0.18 0.156,0.133 0.23,0.317 0.23,0.547 0,0.184 -0.074,0.348 -0.223,0.484 -0.152,0.141 -0.336,0.239 -0.554,0.301 -0.219,0.063 -0.453,0.094 -0.7,0.094 -0.152,0 -0.292,-0.02 -0.429,-0.051 -0.133,-0.035 -0.254,-0.101 -0.36,-0.203 -0.105,-0.098 -0.156,-0.223 -0.156,-0.375 0,-0.109 0.039,-0.23 0.125,-0.359 0.043,-0.039 0.196,-0.125 0.449,-0.27 0.008,-0.004 0.012,-0.008 0.02,-0.012 -0.145,-0.023 -0.25,-0.078 -0.32,-0.164 -0.067,-0.086 -0.102,-0.187 -0.102,-0.312 0,-0.145 0.113,-0.297 0.344,-0.453 -0.262,-0.153 -0.391,-0.383 -0.391,-0.688 0,-0.258 0.094,-0.461 0.289,-0.609 0.192,-0.153 0.407,-0.227 0.645,-0.227 0.125,0 0.234,0.016 0.336,0.047 0.156,-0.008 0.324,-0.027 0.508,-0.055 0.183,-0.027 0.304,-0.043 0.359,-0.05 l 0.016,0.019 c -0.008,0.051 -0.016,0.102 -0.016,0.145 0,0.043 0.008,0.09 0.016,0.14 l -0.016,0.016 c -0.34,-0.035 -0.531,-0.055 -0.57,-0.055 0.183,0.121 0.277,0.328 0.277,0.617 z m -0.43,0.028 c 0,-0.43 -0.168,-0.645 -0.5,-0.645 -0.16,0 -0.281,0.055 -0.363,0.164 -0.082,0.106 -0.125,0.25 -0.125,0.438 0,0.211 0.043,0.371 0.121,0.48 0.082,0.106 0.219,0.157 0.41,0.157 0.164,0 0.281,-0.051 0.352,-0.157 0.07,-0.101 0.105,-0.25 0.105,-0.437 z"
       style="fill:#000000;fill-opacity:1;fill-rule:nonzero;stroke:none"
       transform="scale(1.3333333)" />
    <path
       id="path11"
       d="m 86.723,52.184 v 1.136 c 0.156,0.133 0.32,0.196 0.488,0.196 0.156,0 0.289,-0.082 0.391,-0.246 0.105,-0.165 0.16,-0.391 0.16,-0.676 0,-0.289 -0.032,-0.512 -0.094,-0.66 -0.063,-0.153 -0.172,-0.227 -0.328,-0.227 -0.102,0 -0.219,0.047 -0.344,0.137 -0.125,0.094 -0.215,0.207 -0.273,0.34 z m 0.019,-0.414 c 0.219,-0.297 0.5,-0.446 0.856,-0.446 0.234,0 0.418,0.059 0.558,0.176 0.258,0.223 0.387,0.539 0.387,0.945 0,0.387 -0.121,0.707 -0.355,0.961 -0.239,0.258 -0.528,0.387 -0.879,0.387 -0.231,0 -0.426,-0.051 -0.586,-0.156 v 0.277 c 0,0.488 0.015,0.856 0.054,1.098 l -0.011,0.019 C 86.617,55.02 86.477,55.012 86.352,55.012 l -0.407,0.019 -0.004,-0.019 c 0.036,-0.231 0.055,-0.594 0.055,-1.098 v -1.469 c 0,-0.488 -0.019,-0.843 -0.062,-1.066 l 0.011,-0.02 c 0.313,0.016 0.547,0.012 0.711,-0.015 0.028,0 0.043,0.019 0.047,0.058 0.012,0.055 0.02,0.172 0.02,0.352 z"
       style="fill:#000000;fill-opacity:1;fill-rule:nonzero;stroke:none"
       transform="scale(1.3333333)" />
    <path
       id="path12"
       d="m 75.359,20.109 c 0,0.52 -0.421,0.938 -0.937,0.938 -0.52,0 -0.938,-0.418 -0.938,-0.938 0,-0.519 0.418,-0.937 0.938,-0.937 0.516,0 0.937,0.418 0.937,0.937 z"
       style="fill:#e5e5e5;fill-opacity:1;fill-rule:nonzero;stroke:#c4c4c4;stroke-width:0.566929;stroke-linecap:square;stroke-linejoin:round;stroke-miterlimit:4;stroke-dasharray:none;stroke-opacity:1"
       transform="scale(1.3333333)" />
    <path
       id="path13"
       d="m 44.777,20.109 c 0,0.52 -0.418,0.938 -0.937,0.938 -0.516,0 -0.938,-0.418 -0.938,-0.938 0,-0.519 0.422,-0.937 0.938,-0.937 0.519,0 0.937,0.418 0.937,0.937 z"
       style="fill:#e5e5e5;fill-opacity:1;fill-rule:nonzero;stroke:#c4c4c4;stroke-width:0.566929;stroke-linecap:square;stroke-linejoin:round;stroke-miterlimit:4;stroke-dasharray:none;stroke-opacity:1"
       transform="scale(1.3333333)" />
    <path
       id="path14"
       d="m 78.75,16.379 h 0.676 c -0.196,0.883 -0.254,1.144 -0.254,1.547 0,0.086 0,0.246 0.047,0.453 0.066,0.262 0.133,0.297 0.219,0.297 0.121,0 0.25,-0.102 0.25,-0.223 0,-0.039 0,-0.047 -0.036,-0.133 -0.179,-0.429 -0.179,-0.824 -0.179,-0.992 0,-0.308 0.047,-0.637 0.113,-0.949 h 0.676 c 0.082,0 0.3,0 0.3,-0.203 0,-0.141 -0.132,-0.141 -0.246,-0.141 h -2.004 c -0.132,0 -0.359,0 -0.621,0.281 -0.207,0.235 -0.363,0.504 -0.363,0.532 0,0.011 0,0.066 0.074,0.066 0.047,0 0.055,-0.027 0.094,-0.074 0.289,-0.461 0.637,-0.461 0.758,-0.461 h 0.34 c -0.188,0.723 -0.508,1.445 -0.762,1.988 -0.047,0.094 -0.047,0.106 -0.047,0.153 0,0.109 0.094,0.156 0.168,0.156 0.18,0 0.227,-0.168 0.301,-0.383 0.086,-0.281 0.086,-0.289 0.16,-0.59 z"
       style="fill:#000000;fill-opacity:1;fill-rule:nonzero;stroke:none"
       transform="scale(1.3333333)" />
    <path
       id="path15"
       d="M 78.945,14.875 H 73.668"
       style="fill:none;stroke:#000000;stroke-width:0.467717;stroke-linecap:butt;stroke-linejoin:miter;stroke-miterlimit:4;stroke-dasharray:none;stroke-opacity:1"
       transform="scale(1.3333333)" />
    <path
       id="path16"
       d="m -72.586,-14.875 -1.621,0.937 v -1.871 z"
       style="fill:#000000;fill-opacity:1;fill-rule:evenodd;stroke:#000000;stroke-width:0.249449;stroke-linecap:butt;stroke-linejoin:miter;stroke-miterlimit:4;stroke-dasharray:none;stroke-opacity:1"
       transform="scale(-1.3333333)" />
    <path
       id="path17"
       d="M 1.152,1.836 H 29.007 V 47.129 H 1.152 Z"
       style="fill:#ececec;fill-opacity:1;fill-rule:nonzero;stroke:none"
       transform="scale(1.3333333)" />
    <path
       id="path18"
       d="m 13.863,43.789 0.055,-20.5"
       style="fill:none;stroke:#2c2c2c;stroke-width:0.615118;stroke-linecap:square;stroke-linejoin:miter;stroke-miterlimit:4;stroke-dasharray:none;stroke-opacity:1"
       transform="scale(1.3333333)" />
    <path
       id="path19"
       d="m -21.832,13.977 -2.129,1.228 10e-4,-2.461 z"
       style="fill:#2c2c2c;fill-opacity:1;fill-rule:evenodd;stroke:#2c2c2c;stroke-width:0.328062;stroke-linecap:butt;stroke-linejoin:miter;stroke-miterlimit:4;stroke-dasharray:none;stroke-opacity:1"
       transform="matrix(0.00338895,-1.3333333,1.3333333,0.00338895,0,0)" />
    <path
       id="path20"
       d="m 74.305,43.789 0.05,-20.5"
       style="fill:none;stroke:#c4c4c4;stroke-width:0.615118;stroke-linecap:square;stroke-linejoin:miter;stroke-miterlimit:4;stroke-dasharray:none;stroke-opacity:1"
       transform="scale(1.3333333)" />
    <path
       id="path21"
       d="m -21.678,74.414 -2.13,1.232 0.002,-2.46 z"
       style="fill:#c4c4c4;fill-opacity:1;fill-rule:evenodd;stroke:#c4c4c4;stroke-width:0.328062;stroke-linecap:butt;stroke-linejoin:miter;stroke-miterlimit:4;stroke-dasharray:none;stroke-opacity:1"
       transform="matrix(0.00338859,-1.3333333,1.3333333,0.00338859,0,0)" />
    <path
       id="path22"
       d="M 28.723,4.66 C 25.691,4.66 24.211,4.281 21.934,5.539 19.656,6.797 20.246,19.477 14.98,20.086 9.711,20.695 1.438,19.934 1.438,19.934 V 1.836 h 27.285 z"
       style="fill:#c9d9c4;fill-opacity:1;fill-rule:nonzero;stroke:#758c6b;stroke-width:0.566929;stroke-linecap:square;stroke-linejoin:miter;stroke-miterlimit:4;stroke-dasharray:none;stroke-opacity:1"
       transform="scale(1.3333333)" />
    <path
       id="path23"
       d="M 1.152,1.836 H 29.007 V 47.129 H 1.152 Z"
       style="fill:none;stroke:#000000;stroke-width:0.493228;stroke-linecap:square;stroke-linejoin:miter;stroke-miterlimit:4;stroke-dasharray:none;stroke-opacity:1"
       transform="scale(1.3333333)" />
    <path
       id="path24"
       d="m 14.852,20.109 c 0,0.52 -0.418,0.938 -0.938,0.938 -0.516,0 -0.937,-0.418 -0.937,-0.938 0,-0.519 0.421,-0.937 0.937,-0.937 0.52,0 0.938,0.418 0.938,0.937 z"
       style="fill:#bebebe;fill-opacity:1;fill-rule:nonzero;stroke:#000000;stroke-width:0.566929;stroke-linecap:square;stroke-linejoin:round;stroke-miterlimit:4;stroke-dasharray:none;stroke-opacity:1"
       transform="scale(1.3333333)" />
    <path
       id="path25"
       d="m 43.789,43.789 0.055,-20.5"
       style="fill:none;stroke:#2c2c2c;stroke-width:0.615118;stroke-linecap:square;stroke-linejoin:miter;stroke-miterlimit:4;stroke-dasharray:none;stroke-opacity:1"
       transform="scale(1.3333333)" />
    <path
       id="path26"
       d="m -21.756,43.899 -2.129,1.232 0.001,-2.461 z"
       style="fill:#2c2c2c;fill-opacity:1;fill-rule:evenodd;stroke:#2c2c2c;stroke-width:0.328062;stroke-linecap:butt;stroke-linejoin:miter;stroke-miterlimit:4;stroke-dasharray:none;stroke-opacity:1"
       transform="matrix(0.00338859,-1.3333333,1.3333333,0.00338859,0,0)" />
    <path
       id="path27"
       d="m 48.172,16.379 h 0.676 c -0.2,0.883 -0.254,1.144 -0.254,1.547 0,0.086 0,0.246 0.047,0.453 0.066,0.262 0.129,0.297 0.214,0.297 0.122,0 0.254,-0.102 0.254,-0.223 0,-0.039 0,-0.047 -0.039,-0.133 -0.175,-0.429 -0.175,-0.824 -0.175,-0.992 0,-0.308 0.046,-0.637 0.109,-0.949 h 0.676 c 0.086,0 0.3,0 0.3,-0.203 0,-0.141 -0.132,-0.141 -0.242,-0.141 H 47.73 c -0.132,0 -0.355,0 -0.617,0.281 -0.207,0.235 -0.367,0.504 -0.367,0.532 0,0.011 0,0.066 0.074,0.066 0.047,0 0.059,-0.027 0.094,-0.074 0.293,-0.461 0.637,-0.461 0.762,-0.461 h 0.336 c -0.188,0.723 -0.508,1.445 -0.758,1.988 -0.047,0.094 -0.047,0.106 -0.047,0.153 0,0.109 0.094,0.156 0.168,0.156 0.176,0 0.223,-0.168 0.301,-0.383 0.082,-0.281 0.082,-0.289 0.156,-0.59 z"
       style="fill:#000000;fill-opacity:1;fill-rule:nonzero;stroke:none"
       transform="scale(1.3333333)" />
    <path
       id="path28"
       d="M 48.363,14.875 H 43.086"
       style="fill:none;stroke:#000000;stroke-width:0.467717;stroke-linecap:butt;stroke-linejoin:miter;stroke-miterlimit:4;stroke-dasharray:none;stroke-opacity:1"
       transform="scale(1.3333333)" />
    <path
       id="path29"
       d="m -42.008,-14.875 -1.617,0.937 v -1.871 z"
       style="fill:#000000;fill-opacity:1;fill-rule:evenodd;stroke:#000000;stroke-width:0.249449;stroke-linecap:butt;stroke-linejoin:miter;stroke-miterlimit:4;stroke-dasharray:none;stroke-opacity:1"
       transform="scale(-1.3333333)" />
    <path
       id="path30"
       d="M 31.426,1.836 H 59.281 V 47.129 H 31.426 Z"
       style="fill:none;stroke:#000000;stroke-width:0.493228;stroke-linecap:square;stroke-linejoin:miter;stroke-miterlimit:4;stroke-dasharray:none;stroke-opacity:1"
       transform="scale(1.3333333)" />
    <path
       id="path31"
       d="M 61.941,1.836 H 89.796 V 47.129 H 61.941 Z"
       style="fill:none;stroke:#000000;stroke-width:0.493228;stroke-linecap:square;stroke-linejoin:miter;stroke-miterlimit:4;stroke-dasharray:none;stroke-opacity:1"
       transform="scale(1.3333333)" />
    <path
       id="path32"
       d="M 74.312,43.816 67.594,24.449"
       style="fill:none;stroke:#2c2c2c;stroke-width:0.615118;stroke-linecap:square;stroke-linejoin:miter;stroke-miterlimit:4;stroke-dasharray:none;stroke-opacity:1"
       transform="scale(1.3333333)" />
    <path
       id="path33"
       d="m -41.407,52.767 -2.013,1.161 0.002,-2.323 z"
       style="fill:#2c2c2c;fill-opacity:1;fill-rule:evenodd;stroke:#2c2c2c;stroke-width:0.309948;stroke-linecap:butt;stroke-linejoin:miter;stroke-miterlimit:4;stroke-dasharray:none;stroke-opacity:1"
       transform="matrix(-0.46246267,-1.3333333,1.3333333,-0.46246267,0,0)" />
    <path
       id="path34"
       d="m 19.234,22.32 0.696,-0.777 c 0.082,-0.086 0.121,-0.121 0.609,-0.121 v -0.281 c -0.207,0.007 -0.516,0.019 -0.547,0.019 -0.148,0 -0.449,-0.019 -0.617,-0.019 v 0.281 c 0.086,0 0.16,0.008 0.227,0.047 -0.02,0.035 -0.02,0.054 -0.047,0.074 l -0.5,0.562 -0.59,-0.683 h 0.246 v -0.281 c -0.16,0 -0.535,0.019 -0.734,0.019 -0.188,0 -0.457,-0.019 -0.657,-0.019 v 0.281 h 0.434 l 0.926,1.098 -0.785,0.878 c -0.094,0.114 -0.309,0.114 -0.602,0.114 v 0.281 c 0.207,-0.008 0.527,-0.02 0.555,-0.02 0.148,0 0.496,0.012 0.609,0.02 v -0.281 c -0.105,0 -0.215,-0.028 -0.215,-0.067 0,-0.007 0,-0.007 0.035,-0.054 l 0.582,-0.657 0.657,0.778 h -0.235 v 0.281 c 0.16,-0.008 0.524,-0.02 0.723,-0.02 0.187,0 0.457,0.012 0.656,0.02 v -0.281 h -0.422 z"
       style="fill:#000000;fill-opacity:1;fill-rule:nonzero;stroke:none"
       transform="scale(1.3333333)" />
    <path
       id="path36"
       d="M 47.934,9.605 48.625,8.828 C 48.711,8.746 48.746,8.707 49.234,8.707 V 8.426 c -0.207,0.008 -0.515,0.019 -0.543,0.019 -0.148,0 -0.449,-0.019 -0.617,-0.019 v 0.281 c 0.082,0 0.156,0.008 0.223,0.047 -0.02,0.039 -0.02,0.055 -0.047,0.074 l -0.496,0.563 -0.59,-0.684 h 0.242 V 8.426 c -0.16,0 -0.535,0.019 -0.73,0.019 -0.188,0 -0.461,-0.019 -0.656,-0.019 v 0.281 h 0.429 l 0.93,1.098 -0.789,0.879 c -0.094,0.113 -0.309,0.113 -0.598,0.113 v 0.281 c 0.207,-0.008 0.524,-0.019 0.551,-0.019 0.152,0 0.5,0.011 0.609,0.019 v -0.281 c -0.101,0 -0.214,-0.027 -0.214,-0.067 0,-0.007 0,-0.007 0.039,-0.054 l 0.582,-0.656 0.656,0.777 H 47.98 v 0.281 c 0.157,-0.008 0.524,-0.019 0.719,-0.019 0.188,0 0.461,0.011 0.656,0.019 v -0.281 h -0.421 z"
       style="fill:#000000;fill-opacity:1;fill-rule:nonzero;stroke:none"
       transform="scale(1.3333333)" />
    <path
       id="path38"
       d="m 66.512,16.355 0.691,-0.777 c 0.086,-0.086 0.121,-0.121 0.609,-0.121 v -0.281 c -0.207,0.008 -0.515,0.019 -0.542,0.019 -0.149,0 -0.45,-0.019 -0.618,-0.019 v 0.281 c 0.082,0 0.157,0.008 0.223,0.047 -0.02,0.035 -0.02,0.055 -0.047,0.074 l -0.496,0.563 -0.59,-0.684 h 0.242 v -0.281 c -0.16,0 -0.535,0.019 -0.73,0.019 -0.188,0 -0.461,-0.019 -0.656,-0.019 v 0.281 h 0.429 l 0.93,1.098 -0.789,0.879 c -0.094,0.113 -0.309,0.113 -0.598,0.113 v 0.281 c 0.207,-0.008 0.524,-0.019 0.551,-0.019 0.152,0 0.5,0.011 0.609,0.019 v -0.281 c -0.101,0 -0.214,-0.027 -0.214,-0.067 0,-0.007 0,-0.007 0.039,-0.054 l 0.582,-0.656 0.656,0.777 h -0.234 v 0.281 c 0.156,-0.008 0.523,-0.019 0.718,-0.019 0.188,0 0.461,0.011 0.657,0.019 v -0.281 h -0.422 z"
       style="fill:#000000;fill-opacity:1;fill-rule:nonzero;stroke:none"
       transform="scale(1.3333333)" />
  </g>
</svg>
